HIERARCHY
ROOT Hips
{
	OFFSET 0.000000 0.000000 0.000000
	CHANNELS 6 Xposition Yposition Zposition Xrotation Yrotation Zrotation
	JOINT Chest
	{
		OFFSET 0.000000 0.009282 11.569106
		CHANNELS 3 Xrotation Yrotation Zrotation
		JOINT Chest2
		{
			OFFSET 0.000000 -0.016863 9.269641
			CHANNELS 3 Xrotation Yrotation Zrotation
			JOINT Chest3
			{
				OFFSET 0.000000 0.000000 8.374491
				CHANNELS 3 Xrotation Yrotation Zrotation
				JOINT Chest4
				{
					OFFSET 0.000000 0.000000 8.374493
					CHANNELS 3 Xrotation Yrotation Zrotation
					JOINT Neck
					{
						OFFSET 0.000000 -0.000001 12.152554
						CHANNELS 3 Xrotation Yrotation Zrotation
						JOINT Head
						{
							OFFSET 0.000000 -0.040100 7.802319
							CHANNELS 3 Xrotation Yrotation Zrotation
							End Site
							{
								OFFSET 0.000000 -0.020946 14.853096
							}
						}
					}
					JOINT RightCollar
					{
						OFFSET -2.894404 0.000000 6.791374
						CHANNELS 3 Xrotation Yrotation Zrotation
						JOINT RightShoulder
						{
							OFFSET -13.574684 0.000000 0.000000
							CHANNELS 3 Xrotation Yrotation Zrotation
							JOINT RightElbow
							{
								OFFSET -23.923903 0.000000 0.000000
								CHANNELS 3 Xrotation Yrotation Zrotation
								JOINT RightWrist
								{
									OFFSET -19.846718 -0.012765 0.000000
									CHANNELS 3 Xrotation Yrotation Zrotation
									End Site
									{
										OFFSET -14.973145 0.000000 0.000000
									}
								}
							}
						}
					}
					JOINT LeftCollar
					{
						OFFSET 2.894404 0.000000 6.791374
						CHANNELS 3 Xrotation Yrotation Zrotation
						JOINT LeftShoulder
						{
							OFFSET 13.574684 0.000000 0.000000
							CHANNELS 3 Xrotation Yrotation Zrotation
							JOINT LeftElbow
							{
								OFFSET 23.923903 0.000000 0.000000
								CHANNELS 3 Xrotation Yrotation Zrotation
								JOINT LeftWrist
								{
									OFFSET 19.846718 -0.012765 0.000000
									CHANNELS 3 Xrotation Yrotation Zrotation
									End Site
									{
										OFFSET 14.973145 0.000000 0.000000
									}
								}
							}
						}
					}
				}
			}
		}
	}
	JOINT RightHip
	{
		OFFSET -9.469263 -0.004642 0.045487
		CHANNELS 3 Xrotation Yrotation Zrotation
		JOINT RightKnee
		{
			OFFSET 0.000000 -0.002666 -40.478676
			CHANNELS 3 Xrotation Yrotation Zrotation
			JOINT RightAnkle
			{
				OFFSET 0.000000 -0.049110 -35.224068
				CHANNELS 3 Xrotation Yrotation Zrotation
				JOINT RightToe
				{
					OFFSET 0.000000 -12.539530 -6.151390
					CHANNELS 3 Xrotation Yrotation Zrotation
					End Site
					{
						OFFSET 0.000000 -5.044995 -1.291870
					}
				}
			}
		}
	}
	JOINT LeftHip
	{
		OFFSET 9.469263 -0.004642 0.045487
		CHANNELS 3 Xrotation Yrotation Zrotation
		JOINT LeftKnee
		{
			OFFSET 0.000000 -0.002666 -40.478676
			CHANNELS 3 Xrotation Yrotation Zrotation
			JOINT LeftAnkle
			{
				OFFSET 0.000000 -0.049110 -35.224068
				CHANNELS 3 Xrotation Yrotation Zrotation
				JOINT LeftToe
				{
					OFFSET 0.000000 -12.539530 -6.151390
					CHANNELS 3 Xrotation Yrotation Zrotation
					End Site
					{
						OFFSET 0.000000 -5.044995 -1.291870
					}
				}
			}
		}
	}
}
MOTION
Frames: 17
Frame Time: 0.016667
-19.484404 -10.039499 83.079689 3.421105 7.056569 -115.005933 4.841523 2.739633 9.160426 2.204127 1.117679 4.048678 2.204127 1.117678 4.048677 1.660536 0.823712 3.040490 17.519555 -6.571955 -7.189977 -4.114680 -9.518667 -15.411188 0.891584 -12.121458 -16.350505 -20.430826 -80.857658 -12.223124 20.175265 0.306255 3.038025 -12.550740 16.522924 22.261277 8.304808 3.835877 -20.038443 -8.409298 75.252852 -2.381822 8.823679 -0.421573 -1.007066 6.375769 -19.532663 -22.070102 8.956950 0.364283 -1.795454 5.196603 -1.299349 -1.729605 -6.427390 -0.023885 0.668503 -0.027788 -0.038187 0.006376 9.856491 -0.520955 2.579662 0.886937 0.641913 0.389498 -2.985087 -1.274365 4.085963 0.067939 0.041362 0.003380 
-19.495970 -10.009041 83.076775 3.415053 7.112352 -114.870463 4.791181 2.742704 9.167272 2.181821 1.118982 4.052106 2.181822 1.118981 4.052104 1.643820 0.824826 3.043024 17.544562 -6.566391 -7.200470 -4.067252 -9.507821 -15.426349 0.870414 -12.081049 -16.382759 -21.725416 -80.682211 -13.646392 20.027672 0.128243 3.198179 -12.513316 16.399175 22.066671 8.255375 3.898395 -20.011302 -8.448089 75.234711 -2.310003 9.117861 -0.350379 -1.052530 6.636152 -19.204139 -21.732986 9.045468 0.357889 -1.876770 5.183126 -1.311295 -1.768334 -6.460941 -0.003273 0.653451 -0.022702 -0.031538 0.008484 9.872808 -0.530576 2.493823 0.954233 0.623674 0.342743 -3.023458 -1.256853 4.057758 0.071205 0.044285 -0.000667 
-19.503817 -9.976049 83.074440 3.408756 7.162391 -114.734310 4.737291 2.739390 9.173944 2.158154 1.118657 4.054632 2.158154 1.118657 4.054625 1.626071 0.824730 3.044870 17.575475 -6.560509 -7.213077 -4.008762 -9.496350 -15.444801 0.863595 -12.041464 -16.421375 -22.949130 -80.517487 -14.984086 19.760688 -0.075053 3.366032 -12.565957 16.300255 21.928404 8.234998 3.955297 -19.993408 -8.324448 75.254013 -2.405238 9.402823 -0.342006 -1.116149 6.894508 -18.760826 -21.295084 9.125279 0.347524 -1.948426 5.172771 -1.327238 -1.828629 -6.492581 0.018683 0.652118 -0.020212 -0.024777 0.009305 9.885122 -0.536499 2.422216 1.020626 0.612622 0.273262 -3.061643 -1.253676 4.079675 0.074097 0.046818 0.000014 
-19.514717 -9.945552 83.072929 3.403653 7.213296 -114.591190 4.691070 2.737119 9.175300 2.137184 1.117680 4.055212 2.137185 1.117682 4.055209 1.610339 0.824137 3.045264 17.602178 -6.554658 -7.230382 -3.958070 -9.482882 -15.472137 0.832065 -12.007257 -16.463310 -23.997176 -80.345633 -16.165077 19.416937 -0.289119 3.548368 -12.679579 16.240641 21.860830 8.234109 3.998926 -19.987591 -8.203051 75.288123 -2.514463 9.576256 -0.327603 -1.222593 7.285439 -18.258095 -20.755143 9.216312 0.336158 -2.041551 5.146248 -1.339289 -1.888153 -6.517090 0.034695 0.662628 -0.018727 -0.019218 0.011626 9.895302 -0.557413 2.357626 1.091134 0.609745 0.195328 -3.099179 -1.245168 4.059096 0.075554 0.048577 -0.002554 
-19.527048 -9.911314 83.072014 3.399887 7.265134 -114.445352 4.649138 2.734261 9.172856 2.117980 1.116695 4.054543 2.117980 1.116696 4.054539 1.595928 0.823525 3.044720 17.624719 -6.548539 -7.251854 -3.915024 -9.467053 -15.507273 0.816386 -11.980909 -16.509056 -24.871184 -80.188654 -17.144094 19.059254 -0.479774 3.717136 -12.817171 16.221957 21.849012 8.219530 4.061603 -19.983607 -8.167622 75.287789 -2.540275 9.681471 -0.261129 -1.322799 7.735638 -17.703714 -20.168599 9.320864 0.318701 -2.135449 5.099285 -1.347622 -1.945552 -6.534943 0.049556 0.666734 -0.016731 -0.013418 0.014176 9.906211 -0.573205 2.297812 1.168889 0.603634 0.109987 -3.141561 -1.239499 4.038203 0.075142 0.049659 -0.004037 
-19.540411 -9.882059 83.070717 3.393371 7.313339 -114.299227 4.603108 2.735595 9.166604 2.097784 1.117240 4.051445 2.097784 1.117239 4.051442 1.580777 0.824079 3.042362 17.648534 -6.550161 -7.274810 -3.870798 -9.464931 -15.547886 0.802365 -11.961708 -16.561182 -25.607564 -80.053219 -17.972980 18.757982 -0.619799 3.856867 -12.949485 16.215581 21.844080 8.197937 4.126978 -19.970194 -8.213528 75.257586 -2.492692 9.763400 -0.143368 -1.407446 8.185347 -17.102199 -19.573394 9.422537 0.309648 -2.221322 5.047582 -1.363942 -2.000780 -6.550609 0.066270 0.670145 -0.014390 -0.009958 0.015828 9.911071 -0.586872 2.236557 1.245617 0.592535 0.007012 -3.181658 -1.233998 4.033922 0.075498 0.052948 -0.007541 
-19.551428 -9.855050 83.068832 3.384897 7.355623 -114.153792 4.555147 2.737469 9.154341 2.076684 1.118850 4.045901 2.076684 1.118849 4.045903 1.564951 0.825443 3.038173 17.677375 -6.564313 -7.305946 -3.819052 -9.483379 -15.607611 0.741444 -11.944589 -16.619749 -26.320911 -79.908077 -18.812301 18.522674 -0.719089 3.981989 -13.037041 16.203703 21.805806 8.170900 4.195710 -19.951099 -8.232984 75.218414 -2.464702 9.833274 -0.016437 -1.470839 8.506486 -16.469686 -18.999988 9.514016 0.298719 -2.291554 4.998855 -1.379735 -2.084311 -6.565468 0.085472 0.687109 -0.012356 -0.011171 0.018038 9.908777 -0.596000 2.165453 1.321272 0.582274 -0.091786 -3.220730 -1.238993 4.044748 0.077233 0.059081 -0.009879 
-19.561991 -9.827035 83.067085 3.374116 7.392765 -114.012646 4.506651 2.736892 9.136228 2.054431 1.119938 4.038642 2.054431 1.119938 4.038639 1.548256 0.826432 3.032690 17.714864 -6.591628 -7.355071 -3.753072 -9.520650 -15.704280 0.655798 -11.915624 -16.679354 -27.256273 -79.733006 -19.898378 18.311066 -0.820341 4.100388 -13.108825 16.180969 21.761162 8.136406 4.269783 -19.930989 -8.187744 75.190971 -2.472294 9.895010 0.091460 -1.532952 8.679874 -15.817673 -18.408724 9.604440 0.281385 -2.350513 4.938866 -1.384377 -2.183016 -6.576753 0.100296 0.705786 -0.008039 -0.013635 0.022029 9.901300 -0.603081 2.069609 1.397537 0.571302 -0.155936 -3.259280 -1.244727 4.099255 0.077949 0.065082 -0.012482 
-19.573757 -9.800751 83.065979 3.361711 7.425485 -113.877763 4.458900 2.736118 9.117438 2.032704 1.120315 4.031418 2.032705 1.120315 4.031416 1.531950 0.826882 3.027231 17.762197 -6.631914 -7.429494 -3.670598 -9.574141 -15.850996 0.598457 -11.880457 -16.728549 -28.347283 -79.550482 -21.109033 18.035926 -0.960823 4.202132 -13.216902 16.175652 21.737692 8.094624 4.348978 -19.914342 -8.053654 75.189031 -2.542271 9.948676 0.156705 -1.604607 8.761468 -15.163426 -17.783227 9.694304 0.265271 -2.394071 4.868366 -1.387893 -2.256148 -6.581546 0.114663 0.690942 -0.004425 -0.014496 0.026138 9.889526 -0.608009 1.953147 1.472785 0.555107 -0.187995 -3.295638 -1.247262 4.118629 0.076934 0.071671 -0.016527 
-19.583838 -9.778191 83.065804 3.345740 7.453307 -113.750906 4.403972 2.736916 9.096678 2.008847 1.121846 4.022806 2.008847 1.121844 4.022808 1.514051 0.828212 3.020735 17.816955 -6.677123 -7.525475 -3.574874 -9.630303 -16.038174 0.554335 -11.837498 -16.769955 -29.412970 -79.379823 -22.294004 17.688986 -1.127567 4.282326 -13.366439 16.182233 21.741964 8.074104 4.418367 -19.895079 -8.016063 75.217445 -2.520182 9.976256 0.184305 -1.685718 8.943883 -14.530744 -17.158924 9.770817 0.258940 -2.443828 4.807865 -1.400269 -2.303039 -6.587106 0.131176 0.668474 -0.002611 -0.013710 0.028768 9.871981 -0.605512 1.827690 1.544652 0.534906 -0.225367 -3.326522 -1.252728 4.141990 0.074088 0.078473 -0.019567 
-19.591717 -9.756588 83.066483 3.333024 7.483861 -113.633215 4.341649 2.734091 9.072831 1.981790 1.122144 4.012822 1.981790 1.122145 4.012823 1.493740 0.828650 3.013197 17.876159 -6.716637 -7.637912 -3.469824 -9.671299 -16.252836 0.530081 -11.789999 -16.810542 -30.209715 -79.236997 -23.229960 17.279518 -1.277633 4.360503 -13.514812 16.153030 21.720780 8.082904 4.495539 -19.867965 -8.177875 75.256575 -2.303770 9.986186 0.193659 -1.750953 9.273807 -13.943923 -16.590063 9.845055 0.249810 -2.509273 4.753235 -1.407859 -2.358810 -6.592624 0.141879 0.669651 -0.001159 -0.011832 0.031078 9.862092 -0.603977 1.706470 1.605574 0.512525 -0.275866 -3.348000 -1.256541 4.167104 0.069673 0.084516 -0.020920 
-19.599064 -9.732380 83.067284 3.323398 7.520094 -113.517443 4.285440 2.735132 9.045385 1.956926 1.123980 4.001761 1.956926 1.123981 4.001760 1.475083 0.830225 3.004860 17.932645 -6.757417 -7.758176 -3.369918 -9.711864 -16.482389 0.476736 -11.743540 -16.858836 -30.794034 -79.123404 -23.995056 16.808474 -1.394378 4.445539 -13.624279 16.092279 21.631679 8.089457 4.562692 -19.845388 -8.572468 75.305404 -1.866166 9.969662 0.197348 -1.774061 9.593398 -13.363951 -16.106433 9.928535 0.237026 -2.598504 4.694101 -1.410450 -2.430949 -6.595326 0.149755 0.714560 -0.000950 -0.011964 0.033602 9.868062 -0.601345 1.582878 1.648810 0.487865 -0.318627 -3.361354 -1.258010 4.201633 0.065710 0.088819 -0.022402 
-19.609308 -9.709131 83.067680 3.315530 7.557061 -113.404540 4.241120 2.736156 9.010717 1.936427 1.125190 3.988127 1.936428 1.125191 3.988128 1.459692 0.831309 2.994599 17.977090 -6.795811 -7.878102 -3.292002 -9.746942 -16.711344 0.292015 -11.694407 -16.912356 -31.267875 -78.954951 -24.756661 16.269208 -1.519059 4.548435 -13.700221 15.968018 21.418995 8.063896 4.650899 -19.825109 -8.950045 75.347013 -1.420789 9.881744 0.206222 -1.776888 9.727320 -12.830488 -15.633234 10.021549 0.220349 -2.692597 4.620325 -1.405795 -2.473444 -6.592928 0.156256 0.731482 0.000819 -0.012272 0.035655 9.883975 -0.603400 1.463554 1.677245 0.466881 -0.348570 -3.371387 -1.255650 4.195211 0.063990 0.090377 -0.025938 
-19.617622 -9.681786 83.067810 3.310954 7.592627 -113.293454 4.197862 2.731604 8.971437 1.916488 1.124770 3.972273 1.916488 1.124771 3.972273 1.444704 0.831173 2.982671 18.012746 -6.834052 -7.994829 -3.230409 -9.781887 -16.935078 0.104588 -11.646684 -16.962710 -31.928143 -78.743523 -25.706616 15.638582 -1.682421 4.664807 -13.748077 15.794638 21.113221 8.074307 4.711013 -19.791634 -9.199233 75.417057 -1.125139 9.725628 0.196841 -1.764940 9.599856 -12.328753 -15.133741 10.116273 0.195547 -2.771822 4.541400 -1.397926 -2.506112 -6.585968 0.164554 0.731015 0.001359 -0.011778 0.038002 9.908357 -0.604561 1.351389 1.691241 0.444919 -0.379188 -3.375869 -1.251643 4.243583 0.063098 0.087986 -0.027127 
-19.626062 -9.656233 83.068062 3.305872 7.623728 -113.190141 4.155661 2.719130 8.919139 1.896967 1.120254 3.950520 1.896966 1.120254 3.950519 1.429993 0.827980 2.966307 18.039593 -6.859475 -8.099307 -3.183209 -9.796682 -17.132473 0.016208 -11.585823 -16.982838 -32.845082 -78.532634 -26.826842 14.964461 -1.877597 4.783619 -13.797378 15.619997 20.841624 8.065709 4.801810 -19.736503 -9.449205 75.493521 -0.777779 9.497786 0.153820 -1.788806 9.431777 -11.788891 -14.522427 10.202820 0.168903 -2.824409 4.466787 -1.384975 -2.548412 -6.579216 0.169489 0.724440 0.001638 -0.011808 0.040009 9.933925 -0.601506 1.247002 1.693492 0.411761 -0.402303 -3.374429 -1.238493 4.314565 0.062459 0.085028 -0.030078 
-19.633881 -9.634023 83.068878 3.296521 7.644627 -113.088713 4.114351 2.714422 8.866983 1.878349 1.119251 3.928274 1.878349 1.119252 3.928273 1.415981 0.827415 2.949585 18.056384 -6.886941 -8.201048 -3.155053 -9.814896 -17.326412 -0.138595 -11.540504 -17.032629 -33.694672 -78.281700 -27.936379 14.294342 -2.103964 4.912165 -13.847344 15.474845 20.650039 8.049847 4.873681 -19.695103 -9.850569 75.584540 -0.278982 9.219758 0.094235 -1.820854 9.394304 -11.209119 -13.868549 10.272874 0.145086 -2.855645 4.399676 -1.374102 -2.612428 -6.572282 0.172995 0.723469 0.000120 -0.012686 0.042510 9.949232 -0.599467 1.162883 1.688945 0.373133 -0.437451 -3.367601 -1.215760 4.294136 0.061095 0.080729 -0.033863 
-19.638403 -9.610889 83.070236 3.280058 7.650278 -112.988186 4.064870 2.709359 8.824595 1.856304 1.119119 3.910621 1.856304 1.119118 3.910618 1.399414 0.827510 2.936301 18.068000 -6.920795 -8.314335 -3.137326 -9.840286 -17.544102 -0.359118 -11.502216 -17.153001 -34.084389 -77.991430 -28.668783 13.588243 -2.370436 5.098370 -13.905539 15.336363 20.439787 8.073728 4.918937 -19.692287 -10.434385 75.656653 0.353237 8.925220 0.048988 -1.817692 9.454621 -10.622073 -13.273761 10.320272 0.120610 -2.872379 4.340181 -1.364412 -2.687446 -6.566361 0.177397 0.719073 -0.002038 -0.012658 0.044411 9.949022 -0.593846 1.090007 1.682272 0.340827 -0.472917 -3.357309 -1.196622 4.320648 0.057413 0.073321 -0.035043 
